<svg xmlns="http://www.w3.org/2000/svg" width="201" height="205" viewBox="0 0 804 820"><path fill="#EE8716" d="M382 8h41l33 3 25 4 28 7 29 10 26 11 17 8 15 9 16 10 16 12 13 10 10 9 10 8 26 26 18 22 12 17 13 18 11 18 12 23 9 19 11 29 9 30 6 27 4 25 3 32v36l-5 50-4 22-7 29-9 27-10 25-11 24-12 21-8 12-10 14-11 14-12 14-16 17-9 9-8 7-14 11-15 11-15 10-20 12-25 12-18 7-31 9-41 11-24 6-30 5-9 1h-47l-36-4-26-5-24-7-23-8-26-11-16-8-18-10-11-7-28-21-15-13-13-11-12-12-7-8-13-14-13-17-13-19-9-12-13-22-13-26-11-27-10-28-6-23-6-36-3-28-1-15v-27l5-52 3-18 8-34 10-30 13-31 8-16 11-20 8-12 12-17 18-22 12-13 7-8 8-7 10-9 14-11 16-12 18-12 21-12 10-5 23-10 27-9 31-7 18-6 21-5z"/><path fill="#FDAB20" d="M393 30h42l24 3 33 7 36 12 12 5 16 8 15 8 3 1v2l6 2 11 7 8 5v2l5 2 6 4v2l5 2 8 7 11 9 1 3 4 2 10 10 7 6 9 11 9 10 7 9 8 11 7 10 11 17 10 18 10 21 5 11 7 20 9 27 1 6 1 11 4 33v58l-3 34-5 29-6 24-10 30-9 21-8 17-6 10-6 11-11 16-10 13-5 7h-2l-2 4-11 12-16 16-2-1-4 1-1-2-3-1v-5l4-3 4-13-4-1-1-5 1-3h-8l-2-5-6-3-6-7-3-3v-4h2l-1-2h-7v3l-12 5-9 8-10 7h-2l-1 4-4 1-3 3-35 14-9 2 1-3h2v-2l23-12 11-9 5-3 11-10 8-7 12-11 7-7 4-8h2l1-4h2l1-4h2l2-5 6-10 12-23h2l2-9 5-10 8-19 3-7 3-13 4-15 3-17v-58l-3-16-2-13h-2l-6-22-2-9v-7l3-8 3-4-3-10-6-15-10-19-10-15-11-14-7-8v-2l-4-2-5-6-7-6-5-5-10-9-2-1v-2l-5-2-11-9-5-3-7-3-10-7-13-7-16-8-23-9-18-4-19-2h-36l-19 2-13 2-15 4-18 6-8 4-10 4-16 9-12 8-13 10-14 12-9 9-7 8-4 6h-2l-2 4-10 14-5 8-1 3h-2l-2 7-5 8-4 10-6 12-2 6-6 21-5 21-2 3-4 34-1 51-3 1-4-4-4-9-2-2h-10l-7 3-6 3-4 6-7 2-2 6-4 4-6 18v10l2 23 5 21 8 22 5 13 15 30 7 12 1 4h2l9 15 6 9 3 4v3h2l4 7 10 13 8 11 4 9 3 10 6 8 4 4v2l4 2 9 9 1 4-7-1-2-1v-2l-6-2-5-4-10-4-6-5-7-8-15-14-7-8-5-6v-2h-2l-11-14-12-15-11-17-3-7-5-9v-2h-2l-5-12-8-17v-2h-2l-4-12-4-11-2-1-6-20-5-18-6-27-2-14v-7h-2l-2-13-3-3-2-1-2 4-4 4-8 1-6 1h-5l1 4-6 3v2l-6 6-3 14-2 5-1-3h-2l-4-27-1-13v-39l2-27 5-31 6-23 2-9 4-11 3-10 5-14 4-8 3-7 13-26 7-12 9-14 18-24h2l2-4 13-15 8-8 8-7 11-10 17-13 15-10 21-12 23-11 25-10 18-5 16-3 15-5 13-4 29-7 28-4z"/><path fill="#FDAC21" d="m449 149 20 1 14 4 2 4-3 7 3 1 1 5 3 1 4 9 4 25v20l2 5-4 1-2-3-1 3 3 3 3 13 2 11-3 1-6-7-5-5-7-9v-2l-4-1-12-14-16-16-2-1v-2l-4-2-9-8-2-1v2h2v2l4 2 8 7 2 4 4 2 7 8 5 5 9 10 10 14 5 8v3h2l4 7v3h2l10 22 4 13 2 11v22l-3 19-7 21-12 27-8 14-9 13-8 7-6 3h-16l-17-8-1-2-10-5-16-12-14-11-15-15v-2l-3-1-10-14-4-10-1-5h-2l-4-11-3-11 1-2-2-1-1-1-1 3-2 5v5l-3 2-1-3h-2l-2-3v7l4 15 6 13 5 10 6 8v2l3 1 9 11 8 8 11 9 10 8 9 6 5 6 1 3-4 1 11 7 13 11 12 15 8 13 9 19 4 10 5 17 1 6v13l-4 9-7 7-5 4-20 7-20 6-14 3-29-3-18-4-16-6-10-6v-2l-5-1-5-5-5-3-5-7-5-5-8-11-3-4v-2h-2l-2-4-5-5-8-13-9-16-11-23-4-10v-7h-2v-4l-6 1-2 4-4 1-4-1v-2h-2l-2-5 1-3-1-22-1-10v-31l2-26 6-29 6-20 6-15 11-23 12-20 14-19 12-14 2-3h2l2-4 22-18 15-10 11-7 16-8 12-5 23-7 19-4 19-3z"/><path fill="#8D3C00" d="M382 8h41l33 3 25 4 28 7 29 10 26 11 17 8 15 9 16 10 16 12 13 10 10 9 10 8 26 26 18 22 12 17 13 18 11 18 12 23 9 19 11 29 9 30 6 27 4 25 3 32v36l-5 50-4 22-7 29-9 27-10 25-11 24-12 21-8 12-10 14-11 14-12 14-16 17-9 9-8 7-14 11-15 11-15 10-20 12-25 12-18 7-31 9-41 11-24 6-30 5-9 1h-47l-36-4-26-5-24-7-23-8-26-11-16-8-18-10-11-7-28-21-15-13-13-11-12-12-7-8-13-14-13-17-13-19-9-12-13-22-13-26-11-27-10-28-6-23-6-36-3-28-1-15v-27l5-52 3-18 8-34 10-30 13-31 8-16 11-20 8-12 12-17 18-22 12-13 7-8 8-7 10-9 14-11 16-12 18-12 21-12 10-5 23-10 27-9 31-7 18-6 21-5zm11 22-27 3-22 4-20 5-21 7-16 4-15 3-21 7-29 13-19 10-19 12-14 10-13 11-8 7-16 15-13 15-1 3-3 1-14 19-8 11-6 11-3 5-5 8-11 23-6 13-5 14-4 13-3 8-8 32-5 31-2 27v39l2 22 5 32 7 30 8 26 8 21 3 5 2 7 8 16 8 14 5 9 11 18 8 11 10 14 10 11 7 8 15 16 15 14 12 10h2v2l9 6h2v2l19 13 9 6 11 6 28 14 24 9 12 4 24 6 19 4 24 3 31 1 36-3 31-6 53-14 27-8 20-8 25-12 18-10 15-10 12-9 11-9 10-9 9-8v-2l3-1 7-8 9-10 13-17 14-21 12-21 13-26 10-26 8-26 6-27 2-11 3-30 1-17v-37l-3-30-3-19-7-31-8-26-7-20-6-13-5-12-10-20-6-10-11-17-7-10-9-12-11-14-12-13-6-7-8-7-6-6h-2l-2-4-11-9-7-6-5-2v-2l-9-6h-2v-2l-11-7-12-7h-2v-2l-40-20-29-10-21-6-31-6-18-2z"/><path fill="#FED932" d="M282 59h6l2 4v4l-4 4 1 2-7 6-17 11-12 9-11 9-10 9-7 8-5 7-1 6 2 7v26l2 21 5 14 4 5 2 3 7-1 13-6 5 1-1 6-2 3h-2l-2 4-10 14-5 8-1 3h-2l-2 7-5 8-4 10-6 12-2 6-6 21-5 21-2 3-4 34-1 51-3 1-4-4-4-9-2-2h-10l-7 3-6 3-4 6-7 2-2 6-4 4-6 18v10l2 23 5 21 8 22 5 13 15 30 7 12 1 4h2l9 15 6 9 3 4v3h2l4 7 10 13 8 11 4 9 3 10 6 8 4 4v2l4 2 9 9 1 4-7-1-2-1v-2l-6-2-5-4-10-4-6-5-7-8-15-14-7-8-5-6v-2h-2l-11-14-12-15-11-17-3-7-5-9v-2h-2l-5-12-8-17v-2h-2l-4-12-4-11-2-1-6-20-5-18-6-27-5-38-2-26v-31l1-21 1-5 2-24 5-25 7-24 5-15 8-18 5-9 8-11 9-16 14-22 9-12 11-14 15-16 8-8 8-7 13-11 18-13 17-11 4-1v-2l4-2h3v-2l12-5z"/><path fill="#EF8716" d="M412 132h36l24 3 16 4 22 9 14 7 16 9 10 7 7 3 12 9 6 4v2l4 2 10 9 7 6 5 5v2l3 1 7 8 10 12 8 11 10 15 11 23 5 14 1 4-2 5h-2l-2 9 1 11 3 9 3 12v4h2l2 5 3 21 1 8v53l-5 26-4 13-3 12-4 8-7 16-5 12-1 3h-2l-2 6-10 19-8 13h-2l-1 4h-2l-1 4h-2l-1 4-19 19-4 2-3-2 17-17 11-14 10-14 6-11 2-9h-4l-1 3-18 11-16 8-19 7-32 8-7 1h-14l-9-4-10-6-1-3 9 1h20l28-6 16-5 16-6 14-7 5-4 5-3 12-11 9-11 9-16 7-17 5-21 3-18v-54l-2-20-3-14h-2l-5-12-6-1h-9l-15 5-16 8-15 8-9 6-5 2-5 4-5 5-8 6-10 9-3 1v2l-8 7-5 4h-4l-1-4h-2v2l-5 1-2 5h-2l-2 4-9 12h-3l-2 5-3 3-4 7-6 11-6 5h-3l1-5h2l-2-3-3 1h-2l-9 5-5-2v-4l10-3 9-6 8-10 12-21 11-25 7-21 3-19v-22l-4-18-6-15-5-10v-3h-2l-4-8v-2h-2l-4-8-10-14-11-13-10-10-9-10-8-7-2-1v-2h-2v-2l4 2 8 7 3 2v2l4 2 19 19 8 10 3 1 7 10 3 3v2l4 2 5 5 1-1-2-10-2-9v-4l-3-1-1-3 2-3h2v3h3l-2-6v-19l-2-10-2-16-4-8-3-3-1-3-2-1 1-5 1-3-1-2-14-4v-2l-18-3-6-2h-13l-7-1-2-1h-22l-24 5-13 4-15 6-16 8-16 9-12 9h-2v2l-4 3h-2v2l-16 14-1 2h-2l-2 4-10 11-13 18-13 21-8 17-5 11-9 27-5 22-4 28v48l2 16 3 13 1 7 1 1 1 7 3 9 3 6 3 10 5 11 5 12 6 11 8 13 6 11 14 19 9 13 18 22 16 14 14 10 13 8 24 12 20 7 9 3 21 5 14 3 15 2v1h-16l-23-4-23-6-24-9-25-13-12-8-17-12v-2l-4-2-10-9-2-1v-2l-4-2-10-10-8-6-1-3-3-2-1-3-3-3-5-7v-2h-2l-1-3-2-1-3-6v-2h-2v-3h-2l-4-8-8-13-9-18-7-21-6-19v-5h-2l-6-36-1-4v-47l3-34 5-18 4-14 3-12 5-12 4-8 4-10 5-8 2-5h2l1-5 11-16 6-8h2l2-5 7-7 7-8 8-8 11-9 16-12 15-9 15-8 11-4 7-3 15-5 12-3 19-3z"/><path fill="#FEC128" d="M393 30h42l24 3 19 4 3 3-18 2-9 2-13 4-11 3-11 5-14 8h-3v2l-5 3-6 7h-2l-1 4h-2l-2 6-6 16-1 6v12l1 7 4 2 2 5-6 4-13 3-18 6-8 4-10 4-16 9-12 8-13 10-14 12-9 9-7 8-1-3h-6l-14 7h-5l-8-11-4-12-2-22v-25l-2-8 2-7 9-11 7-7h2l1-3 14-11 16-12 15-9 3-5 4-5v-4l-1-3h-6l-12 6-6 1v2l-7 2v2l-12 7-20 14-20 16-17 16-7 7-7 8-11 14-10 14-16 26-8 14-6 7-10 21-6 17-6 20-5 21-3 19-1 16-1 5-1 21v31l3 35v8h-1l-2-13-3-3-2-1-2 4-4 4-8 1-6 1h-5l1 4-6 3v2l-6 6-3 14-2 5-1-3h-2l-4-27-1-13v-39l2-27 5-31 6-23 2-9 4-11 3-10 5-14 4-8 3-7 13-26 7-12 9-14 18-24h2l2-4 13-15 8-8 8-7 11-10 17-13 15-10 21-12 23-11 25-10 18-5 16-3 15-5 13-4 29-7 28-4z"/><path fill="#FB9B1C" d="m748 310 2 2 7 31 4 32 1 13v37l-2 30-3 23-6 28-6 20-8 24-5 12-16 32-12 20-14 20-13 16-9 10-5 6h-2l-2 4-14 13-14 11-16 12-25 15-24 12-17 7-21 7-44 12-28 7-26 5-36 3-31-1-24-3-27-6-23-6-21-8-16-7-20-10-12-7-16-10-11-8v-2l-5-2-6-4v-2l-5-2-3-3-8-7-17-16-15-16-10-11-12-16-8-12-9-14-6-10-12-22-7-14-3-9-5-11-10-30-8-32-3-16v-3h3l2-5 2-12 5-5 2-3 5-3v-3l11-2 8-1h2l2-4 2-3h4l2 4 1 13h2l4 26 7 30 7 22 1 8 3 1 4 11 3 9v3h2l12 25 1 6h2l8 14 3 7 10 15 13 16 8 10v2h2l2 5 3 1 6 8 10 10 8 7 6 7 14 11 5 3v2l5 2v2h3v2l5 2 2 1v2l5 2 7 3v2l5 2 15 8 30 10 13 3 26 3 15 3 28 4 17 1h16l36-3 25-5 25-6 35-11h2v-2l16-7 17-9 14-9 16-11 12-9 14-12 25-25 6-8h2l2-4 12-16 12-17 7-13 8-15 9-20 9-24 8-27 5-23 4-27 2-26v-58l-4-33z"/><path fill="#FEC128" d="M383 171h12l16 8 11 7v2l4 1 4 4 2 1v2l4 2 8 7 2 4 4 2 7 8 5 5 9 10 10 14 5 8v3h2l4 7v3h2l10 22 4 13 2 11v22l-3 19-7 21-12 27-8 14-9 13-8 7-6 3h-16l-17-8-1-2-10-5-16-12-14-11-15-15v-2l-3-1-10-14-4-10-1-5h-2l-5-22-2-15v-36l2-21 5-22 7-21 3-12 6-13 5-9 4-6 5-5 5-1zM199 334h1v10l-2 23v47l4 21 2 11v8h2l5 19 8 22 6 14 4 8 11 18v3h2v3h2l3 5v3l3 1v3h2l6 9v2l3 1 1 3 3 2 3 5 8 6 9 9 2 1v2l4 2 10 9 2 1v2l5 2 13 10 15 9 23 12 22 8 23 6 9 3 3 2-4 4-6 1-16 2-5 1-1 11-1 1h-6l1 4-2 2-5 2-4 4h-2l-2 4-8 5-5 6-2 5-5 1v3l7 1 5 5 6 3 3 4 9 5 3 2 21 4v1h-8l-32-5-11-2-24-3-32-10-17-8-8-5v-2l-6-1-6-4v-2l-5-2-2-1v-2h-3v-2l-5-2v-2l-5-2-6-5 3-1 8 5 7 4v2l8 1-3-5-13-13-7-8-3-8-4-11-6-9-10-13-6-8v-3h-2l-4-7-6-9-8-13v-2h-2l-6-11-10-18-7-16-4-8-7-20-5-15-3-14-2-23v-10l4-11 3-9 4-2 2-6 8-4 3-5 8-4 5-2h10l5 6 3 7 3 2h2v-51z"/><path fill="#D16B0F" d="M382 8h41l33 3 25 4 28 7 29 10 26 11 17 8 15 9 16 10 28 21-3 3-3 9-4 1-5-2v-2l-4-1-4-2v-2l-4-1v-2l-5-1-3-1-4-4-6-2-5-4-6-2-6-4-12-6-4-3-3-1 1 3-5-2-20-9-10-4-33-11-33-7-24-3h-42l-27 3-22 4-20 5-21 7-16 4-15 3-21 7-29 13-19 10-19 12-14 10-13 11-8 7-16 15-12 14-7 8-13 18-6 8-6 11-3 5-5 8-11 23-6 13-5 14-4 13-3 8-8 32-5 31-2 27v39l2 22 5 32 7 30 8 26 8 21 3 5 2 7 7 14-1 2-2-1 6 12 2 3 2 9h2l3 11h2v4h2l3 7 5 9 3 4 5 14-1 4-3 3-1 7-6 5-9-12-11-16-9-12-13-22-13-26-11-27-10-28-6-23-6-36-3-28-1-15v-27l5-52 3-18 8-34 10-30 13-31 8-16 11-20 8-12 12-17 18-22 12-13 7-8 8-7 10-9 14-11 16-12 18-12 21-12 10-5 23-10 27-9 31-7 18-6 21-5z"/><path fill="#FB9A1B" d="M625 331h9l7 2 4 9v3h2l3 10 2 11 1 13v54l-5 28-5 17-9 19-7 10-7 9-9 9-6 5-14 8-15 7-18 6-25 6-20-3-6-6-8-18-5-19-2-12-1-16v-22l2-16 2-8h2l1-6 3-7 4-6 8-7 11-12 8-11h2v-2l6-5h2l2-4 13-10h2l2-4 5-4 7-3 13-8 15-8 17-7z"/><path fill="#FB9B1C" d="m610 598 5 1v2h-2l1 5 9 9 6 3 1 5 6-1 2 1v7l4 2-2 10-3 5-2 1-1 5 4 1 1 1 4-1-1 4-11 10-19 14-12 8-18 11-21 11-8 2v2l-27 9-25 7-25 5-19 3-27 2h-16l-17-1v-2l-11-1-12-3-7-5-4-2-5-5-7-4-1-3-7-1-1-3 1-1h5l1-5 3-4h2l1-3 9-6 8-8 5-2v-4l6-1 1-11 6-2 24-3 1-3-10-3v-1l10 1 12 2 1 1h35l27-6 19-6 11-4 5-1-3 4 25-9 15-7 6-1 1-3h4l1-4 9-6 11-9 2-2 8-3h3v-3z"/><path fill="#F88A8B" d="m748 310 2 2 7 31 4 32 1 13v37l-2 30-3 23-6 28-6 20-8 24-5 12-16 32-12 20-14 20-13 16-9 10-5 6h-2l-2 4-14 13-14 11-16 12-25 15-24 12-17 7-21 7-44 12-28 7-26 5-36 3-31-1-24-3-27-6-23-6-21-8-16-7-20-10-12-7-10-6v-2l10 3h8l7 1v-3l5-2 5-6h3v-2l4 1 1-2h7l3-2 2-1v2l5 2 15 8 30 10 13 3 26 3 15 3 28 4 17 1h16l36-3 25-5 25-6 35-11h2v-2l16-7 17-9 14-9 16-11 12-9 14-12 25-25 6-8h2l2-4 12-16 12-17 7-13 8-15 9-20 9-24 8-27 5-23 4-27 2-26v-58l-4-33z"/><path fill="#FDAB20" d="M372 446h10l15 6 12 6 11 7 2 1-1-4 6 5 10 13 8 13 9 19 4 10 5 17 1 6v13l-4 9-7 7-5 4-20 7-20 6-14 3-29-3-18-4-16-6-10-6v-2l-5-1-1-2 4-1-1-6-4-9v-7l4-15 5-10 2-8 5-9 1 4 4-13 2-5 3-5 4-6 5-8 8-6 7-9 1-5-1-3h2v2h2l-1-3z"/><path fill="#FED932" d="m125 151 4 2 3 5 3 1v2l-2 1v3l6 5 3 9 2-2 3 1-8 14-10 17-6 7-10 21-6 17-6 20-5 21-3 19-1 16-1 5-1 21v31l3 35v8h-1l-2-13-3-3-2-1-2 4-4 4-8 1-6 1h-5l1 4-6 3v2l-6 6-3 14-2 5-1-3h-2l-4-27-1-13v-39l2-27 5-31 6-23 2-9 4-11 3-10 5-14 4-8 3-7 13-26 7-12 9-14 18-24h2l2-4z"/><path fill="#FDAB20" d="m271 578 4 2 10 10 2 1v2l4 2 10 9 2 1v2l5 2 13 10 15 9 23 12 22 8 23 6 9 3 3 2-4 4-6 1-16 2-5 1-1 11-1 1h-6l1 4-2 2-5 2-4 4h-2l-2 4-8 5-5 6-2 5-5 1v3l7 1 5 5 6 3 3 4 9 5 3 2 21 4v1h-8l-32-5-11-2-24-3-16-5v-2l-5-1 5-4h5l1-4-7-8-16-12-6-4-14-10-15-14-6-12-2-12v-14l4-13 4-7 13-13 11-6-1-5h-2z"/><path fill="#FEC128" d="M269 428h52l27 4 21 5 20 6 7 3 10 4 11 8 4 3 1 5-6-2-11-7-12-6-11-4h-10l-4 2v2h-2v4l-4 6-5 6-9 7-3 6-4 6-3 5-2 5-4 13-2 2v-5l-5 10-2 8-5 10-3 13v7l5 12-1 4h-6l-2-3-5-3-5-7-5-5-8-11-3-4v-2h-2l-2-4-5-5-8-13-9-16-11-23-4-10-3-16 1-6 3-5 5-4 12-4z"/><path fill="#FDAB20" d="m493 269 2 3 9 19 4 13 2 11v22l-3 19-7 21-12 27-8 14-9 13-8 7-4 1v-4l-9 1-6-2-18-10-3-2v-2l-4-2-6-4v-2h-2l-7-11v-6l2-5 1-7 4-10 2-3h2l1 2 4-5h2l2-4 5-13 8-11 2-5 9-12 9-10 2-6 4-2 3-5 7-4 4-1v-7l6-3 3-2v5l3-1 3 4 2-1 3 3-1-13-3-6z"/><path fill="#FFE643" d="M282 59h6l2 4v4l-4 4 1 2-7 6-17 11-12 9-11 9-10 9-16 15-13 14-10 13-11 16-5 5-8 13-6 11-13 27-5 12-2 10-3 8-4 22-10 40-6 18-8 12-6 6-8 1-4-5-1-3v-22l2-24 5-25 7-24 5-15 8-18 5-9 8-11 9-16 14-22 9-12 11-14 15-16 8-8 8-7 13-11 18-13 17-11 4-1v-2l4-2h3v-2l12-5z"/><path fill="#D16B0E" d="M412 132h36l24 3 16 4 22 9 14 7 16 9 16 11 7 8v2h-6v-2l-5-2-6-5-2-1v-2l-4-1-8-6-6-3-17-9-9-1 1 3 6 1v2l4 1 9 4 12 7 7 4 3 2 2 1 4 4v2l-4-1-13-8-16-9-19-8-14-5-9-3-22-4-6-2h-13l-7-1-2-1h-22l-24 5-13 4-15 6-16 8-16 9-12 9h-2v2l-4 3h-2v2l-16 14-1 2h-2l-2 4-10 11-13 18-13 21-8 17-5 11-9 27-5 22-4 28v48l2 16 3 13 1 7 1 1 1 7 3 9 3 6 3 10 5 11 5 12 6 11 8 13 6 11 14 19 9 13 18 22 16 14 14 10 13 8 24 12 20 7 9 3 21 5 14 3 15 2v1h-16l-23-4-23-6-24-9-25-13-12-8-17-12v-2l-4-2-10-9-2-1v-2l-4-2-10-10-8-6-1-3-3-2-1-3-3-3-5-7v-2h-2l-1-3-2-1-3-6v-2h-2v-3h-2l-4-8-8-13-9-18-7-21-6-19v-5h-2l-6-36-1-4v-47l3-34 5-18 4-14 3-12 5-12 4-8 4-10 5-8 2-5h2l1-5 11-16 6-8h2l2-5 7-7 7-8 8-8 11-9 16-12 15-9 15-8 11-4 7-3 15-5 12-3 19-3z"/><path fill="#E98433" d="m623 531 3 1-3 11-8 14-14 18-12 13-11 11h-2v2l-11 7-11 8-19 11-20 9-22 8-18 5-11 1h-28l-23-3-3-1v-2l-13-1-11-3-1-3 8-3 24-5 15-4 20-7 16-7 19-10 16-11 18-14 6-5 16-5 27-7 21-8 20-11 9-6z"/><path fill="#BC5E08" d="M43 312h1l-1 11-4 25-2 27v39l2 22 5 32 7 30 8 26 8 21 3 5 2 7 7 14-1 2-2-1 6 12 2 3 2 9h2l3 11h2v4h2l3 7 5 9 3 4 5 14-1 4-3 3-1 7-6 5-9-12-11-16-9-12-13-22-13-26-11-27-10-28-6-23-6-36-3-28v-21l3-3 3 1 4-2 1-3h2l3-11h2l1-13 2-13 3-21 2-9 3-4 1-5v-10l3-7z"/><path fill="#EE8615" d="m145 586 3 1 12 19 14 17 8 10v2h2l2 5 3 1 6 8 10 10 8 7 6 7 14 11 5 3v2l5 2v2h3v2l5 2 2 1v2l5 2 6 4-1 2-7 1-6 1-2-1v2l-5 3-3 4h-2l-1 2-2-1v3h-16l-9-3-7-4-10-7v-2l-5-2-6-4v-2l-5-2-3-3-8-7-17-16-15-16-10-11-7-9v-5l-2-6-3-11 1-4 3 1v4l6-5 7-2h6l4-2h6l1-7v-7l1-2h-2z"/><path fill="#FEE643" d="M125 315h1v7l-3 11h-2v51l3 39 4 27 8 34 7 24 4 13 5 16 4 12 1 6v10l-4-1 9 27 7 13 2 5-7-2-5-4-6-10-3-1-8-16-2-5h-2l-5-12-8-17v-2h-2l-4-12-4-11-2-1-6-20-5-18-6-27-5-38-2-26v-31l1-21h1l1 17 3 6 1 1 8-1 7-8 7-11z"/><path fill="#FB9B1C" d="m449 149 20 1 14 4 2 4-3 7 3 1 1 5 3 1 4 9 4 25v20l2 5-4 1-2-3-1 3 3 3 3 13 2 11-3 1-6-7-5-5-7-9v-2l-4-1-12-14-16-16-2-1v-2l-4-2-9-8-5-1-1-3-4-1v-2l-5-2-13-8-9-4-12-1v2l-5 2-3 4h-2l-2 5-5 7-4 9-8 20-4 11-16 3-1-1 1-9 4-10 6-13 7-14 7-8 19-10 1-2h2v-4l-2-1 25-7 30-5z"/><path fill="#B25607" d="M401 9h36l34 4 31 7 36 12 26 11 17 8 15 9 16 10 28 21-3 3-3 9-4 1-5-2v-2l-4-1-4-2v-2l-4-1v-2l-5-1-3-1-4-4-6-2-5-4-6-2-6-4-12-6-4-3-3-1 1 3-5-2-20-9-10-4-33-11-33-7-24-3h-42l-27 3-22 4h-5v-3l11-4 10-2 18-5 11-2 10-3 1-6z"/><path fill="#EF8716" d="M617 624h2v2l2 1 4 8 3 11 1 16v3l3 1-5 5-18 13-15 10-21 12-13 6v-2h-4v2l-11-1-19 4h-6l4-3 3-2h-8l-2-5-9 1-1-4 3-6h2l2-5 6-5h2l2-4 6-1v-2h2l1-4 7-3 2-4 6-3h3v-2l6-2 1-4 2-1 6 1v-2l4-4 1-3 6-4 5-1 2-4 2-2 7-3 6-2h5v-2h3l1-3h5v2l4-3z"/><path fill="#FC9B1C" d="m673 184 5 1 8 8 6 8 5 5v2h2l6 9 7 14 2 9v13l-3 12-9 14h-2l-2 5h-2l-2 4-12 7-8 2-7-2-5-6-7-14-6-16-6-15-3-7v-10l4-10 6-3 5-5 2-3 4-2 4-10 5-6 1-3z"/><path fill="#FB9A1B" d="m452 509 3 4 7 22 2 10v13l-4 9-7 7-5 4-20 7-20 6-14 3-9-1v-2l-11-1v-2l-6-1-2-2h2l-1-12 4-9 3-4 2-5 3-1v2l5-3 3-5h2v-2l3-2 2-5h2l2-4-3-1 1-3 4-2 1-2h2l1-4 5-5 7-1 4 3h6l1-3 2-1 2-4 5-1 2 4 3-2 8 9 3-1z"/><path fill="#FEFDC8" d="m131 207 6 2 4 18v20l-3 14-4 22-10 40-6 18-8 12-6 6-8 1-4-5-1-3v-22l2-24 5-25 7-24 5-15 8-18 5-9 5-6z"/><path fill="#D16B0E" d="m646 340 4 2 3 5 3 8 2 12 3 7 1 31v32l1 3v9l-4 19-3 9-3 12-4 8-7 16-5 12-1 3h-2l-2 6-10 19-8 13h-2l-1 4h-2l-1 4h-2l-1 4-19 19-4 2-3-2 17-17 11-14 10-14 6-11 2-9h-4l-1 3-18 11-16 8-19 7-32 8-7 1h-14l-9-4-10-6-1-3 9 1h20l28-6 16-5 16-6 14-7 5-4 5-3 12-11 9-11 9-16 7-17 5-21 3-18v-54l-2-20-3-12z"/><path fill="#FEBF28" d="m673 433 4 1 3 8v3l2 1-1 13-5 21-8 22-11 24-9 17-11 17-12 16-9 10-7 8-11 11-11 9-11 8h-2l-1 4-4 1-3 3-35 14-9 2 1-3h2v-2l23-12 11-9 5-3 11-10 8-7 12-11 7-7 4-8h2l1-4h2l1-4h2l2-5 6-10 12-23h2l2-9 5-10 8-19 3-7 3-13 4-15 3-17 2-3z"/><path fill="#FEE542" d="M383 171h12l16 8 4 4h-15l-10 3-4 4-3 5-6 12-4 12-1 7-2 3-3 12-1 1-2 17-2 6-2 13-2 18-1 7v18l5 24 10 28 8 13 6 7 2 5h-5l-3-2-6-1-6-7v-2l-3-1-10-14-4-10-1-5h-2l-5-22-2-15v-36l2-21 5-22 7-21 3-12 6-13 5-9 4-6 5-5 5-1z"/><path fill="#FB9B1C" d="M287 53h5l-1 2-5 2-1 2-15 7-6 1v2l-7 2v2l-12 7-20 14-20 16-17 16-7 7-7 8-11 14-10 14-6 9-4 1-2 1-3-10-3-3-3-2 1-4h2v-2l-4-1-3-5-3-3 14-15 13-12 14-12 15-11 14-9 19-11 23-11 25-10 18-5z"/><path fill="#D16B0E" d="m178 631 4 2v2h2l2 5 3 1 6 8 10 10 8 7 6 7 14 11 5 3v2l5 2v2h3v2l5 2 2 1v2l5 2 6 4-1 2-7 1-6 1-2-1v2l-5 3-3 4h-2l-1 2-2-1v3h-16l-9-3-7-4-10-7v-2l-5-2-3-3-2-4-3-5v-2h-2l-5-7-3-6-1-7 2-3 8-4 5-5v-7l-2-9-5-8z"/><path fill="#F08560" d="M263 705h2v2l5 2 15 8 12 4v2l23 11 16 6 5 3h2l1 3 1 2-13 2-3 1v2h2v2l5 2-2 2-11 1-7 1-7-1-8-1-10-2-2 1-21-8-16-7-20-10-12-7-10-6v-2l10 3h8l7 1v-3l5-2 5-6h3v-2l4 1 1-2h7l3-2z"/><path fill="#FEC028" d="M84 367h4l1 5 3 41 1 17h-1l-2-13-3-3-2-1-2 4-4 4-8 1-6 1h-5l1 4-6 3v2l-6 6-3 14-2 5-1-3h-2l-4-27-1-13v-39h1l1 5 30-8z"/><path fill="#A54C06" d="m40 459 3 4 6 27 7 24 7 21 6 14 4 9 6 13-1 2-2-1 6 12 2 3 2 9h2l3 11h2v4h2l3 7 5 9 3 4 5 14-1 4-3 3-1 7-6 5-9-12-11-16-9-12-13-22 1-4 5-3 2-11 1-11-3-12-3-9-4-13-2-5-2-11-3-12-3-9-4-20-3-13z"/><path fill="#F0845F" d="m623 531 3 1-3 11-8 14-11 14-8 7-4 5-8 7-9 8h-2v2l-10 8-16 10-10 6-18 8-13 5-5-1 1-5 12-7 13-9 4-1v-2l9-7 8-8 8-6 7-10 1-6-1-2 2-5 3-1 5-8h3v-2l15-6 20-11 9-6z"/><path fill="#B25506" d="M34 410h1l1 17h2l4 30v5h-1v7l7 33 3 11 4 13 1 8 3 9 3 10 3 9 3 12-1 13-3 9-5 3-2 1-12-24-11-27-9-25v-6l7-1 2-4 2-10 2-11-1-21v-6l-1-5-1-20-1-5-1-24z"/><path fill="#FB9B1C" d="M333 388h6v4l-4 2 7-1h3l2 8 5-1-1-4-4-2-2-6 4 4v2l3 1 9 11 8 8 11 9 10 8 9 6 5 6 1 3-4 1 1 2-6-2-10-4-25-7-25-5-15-2-9-4-3-3-7 1h-9l1-3 13-1 1-5h-5l3-6 4-2v2h8l2-6 4-1 1-5 1-3 4-4z"/><path fill="#D06A0E" d="m420 460 5 2 7 7 8 10 6 9 6 10 5 10 7 15 3 7 5 14 3 17v6l-5 9-5 6-10 6-14 6-25 7-12 3-23 3h-11l-21-3-15-4-16-8-15-10-12-9-6-7 1-3 4 2 11 11 13 9 16 6 16 4 17 1h12l24-4 23-6 18-6 9-4 10-9 4-9v-13l-4-17-5-15-9-17-6-12-11-14-8-9z"/><path fill="#FEC028" d="M625 331h9l3 3-16 4-16 8-11 6-15 9-10 8-4 3h-2v2l-8 7-3 3h-2v2l-8 7-13 15-7 10-4 7h-2l-1 5-11 24-1 10-1 32 2 18 1 12-2 3h-2l-3-7v-4h-2l-3-13-1-6-1-16v-22l2-16 2-8h2l1-6 3-7 4-6 8-7 11-12 8-11h2v-2l6-5h2l2-4 13-10h2l2-4 5-4 7-3 13-8 15-8 17-7z"/><path fill="#BB5E08" d="M401 9h36l34 4 31 7 10 3-2 1 1 5-3 3-14 1-5-1h-21l-5-2-11-1v3l-17-1h-42l-27 3-22 4h-5v-3l11-4 10-2 18-5 11-2 10-3 1-6z"/><path fill="#FEC128" d="M753 366h1v46l-3 34-5 29-6 24-10 30-9 21-6 13-6 1-2 4-5 5-3-1 5-12 4-13 4-11 3-5 5-13 2-3 2-10 3-7 3-9 5-23 2-9 2-5 2-28 2-11v-39l3-6h3l2 3 1 1z"/><path fill="#D16B0E" d="m430 192 4 2 8 7 3 2v2l4 2 19 19 11 14 8 11 10 16 8 16 6 14 6 18 3 14 1 14-4 24-7 21-5 11-7 12-5 8h-2l-2 5-3 3-4 7-6 11-6 5h-3l1-5h2l-2-3-3 1h-2l-9 5-5-2v-4l10-3 9-6 8-10 12-21 11-25 7-21 3-19v-22l-4-18-6-15-5-10v-3h-2l-4-8v-2h-2l-4-8-10-14-11-13-10-10-9-10-8-7-2-1v-2h-2z"/><path fill="#FFE541" d="M269 428h52l27 4 21 5 12 4 1 2-14-1-12-3-12-2-23-2h-27l-18 3-10 4h-2v2h-2v14l1 13 6 20 7 16 7 13 8 14 4 6 1 5-7-3-4-5v-2h-2l-2-4-5-5-8-13-9-16-11-23-4-10-3-16 1-6 3-5 5-4 12-4z"/><path fill="#FEC128" d="m125 151 4 2 3 5 3 1v2l-2 1v3l6 5 3 9 2-2 3 1-8 14-10 17-7 9h-1l-1-8-28 7-11 2-2-2 4-8 7-12 9-14 18-24h2l2-4z"/><path fill="#FDAB20" d="M85 413h4l2 4 1 13h2l4 26 1 8-4-4-1-6-10 2-6 2-20 4-1 4-1 2-1 15 4 27-1 3h-2v-3h-2l-5-16-6-26-2-14h3l2-5 2-12 5-5 2-3 5-3v-3l11-2 8-1h2l2-4z"/><path fill="#EF8716" d="m339 330 2 1 3 9 4 13v3h2l5 13 7 11 4 5 8 8v2l4 2 7 7 9 7 19 14 11 6-1 2-5-2-7-2-3 2-2 2v3l4 2-2 2-14-9-3-3-7-4-14-12-8-7-11-12-2 1-10-15-9-20-3-13v-8l3 2v2h2l2 2 1-3 1-7z"/><path fill="#FEF66E" d="m197 116 2 1-4 5h-2l-2 4-7 8-5 13-6 16-1 2 6-1 3 3-1 5-12 20-10 18-10 21-5 12-2 10h-1v-26l-4-18-5-1-2 1 2-5 9-16 14-22 9-12 11-14 15-16z"/><path fill="#FEE542" d="m673 433 4 1 3 8v3l2 1-1 13-5 21-8 22-11 24-9 17-11 17-12 16-9 10-7 8-11 11-11 9-11 8-4 1 6-7 9-8 11-9 13-13 9-11 10-12 10-15 14-24 4-9-6-2-2-6-1-8 2-9 3-7 3-13 4-15 3-17 2-3z"/><path fill="#D06A0E" d="M412 132h36l24 3 16 4 22 9 14 7 16 9 16 11 7 8v2h-6v-2l-5-2-6-5-2-1v-2l-4-1-8-6-6-3-17-9-9-1 1 3 6 1v2l4 1 9 4 12 7 7 4 3 2 2 1 4 4v2l-4-1-13-8-16-9-19-8-14-5-9-3-22-4-6-2h-13l-7-1-2-1h-22l-24 5-11 3-2-1 10-5 11-3 7-3 6-1 5-1 18-2-9-1z"/><path fill="#ED936E" d="m296 722 10 2 16 5 32 4 15 3 28 4 17 1h16l36-3 25-5 18-4h3v2l-27 6-7 3-11 3-17 2-3 1-19 1h-31l-23-1-14-2-1 3 9 1 4 1v2h3v4l3 1v2l-10-1-2 1h-6l-2 2-14-1-6 2h-5l-4 2h-6l-3 2-8-1-18-5-4-2 3-1 13 3h8l6 1 14-2-3-2v-3h-2v-2l3-2 13-1-3-3 1-2-3 1-4-3-16-6-23-11z"/><path fill="#E88334" d="M263 705h2v2l5 2 15 8 3 1 3 3 5 3v2l-11 4-4 4-5 4h-2l-2 4-4 4h-6l-2 1-28-14-12-7-10-6v-2l10 3h8l7 1v-3l5-2 5-6h3v-2l4 1 1-2h7l3-2z"/><path fill="#CC5F0F" d="M399 133h24l-4 2-6 1h-10l-1 2h-4l-7 2-42 14-15 7-5 1v2l-4 2h-4v2l-7 3-12 7-8 7-12 8-3 1v2l-7 6-7 8-5 7-8 8-1 3-3 3-7 11-2 5h-2l-1 8h-2l-2 6-5 10-5 12-5 11-5 14-2 5-4 3 1-9 5-18 5-12 4-8 4-10 5-8 2-5h2l1-5 11-16 6-8h2l2-5 7-7 7-8 8-8 11-9 16-12 15-9 15-8 11-4 7-3 15-5 12-3z"/><path fill="#A54C07" d="m526 48 13 4 5 3 8 1 2 2 8 2 11-2 1-2h2l2-5 4 1 11 6 19 12 28 21-3 3-3 9-4 1-5-2v-2l-4-1-4-2v-2l-4-1v-2l-5-1-3-1-4-4-6-2-5-4-6-2-6-4-12-6-4-3-3-1 1 3-5-2-20-9-8-4-2-3z"/><path fill="#FDAB20" d="m160 116 4 1-2 9 5 1h5l7 8-6 7-10 13-10 14-6 9-4 1-2 1-3-10-3-3-3-2 1-4h2v-2l-4-1-3-5-3-3 14-15 13-12z"/><path fill="#FDAB21" d="M636 332h2l1 3-5 3h-6l-30 15h-2v2l-7 5h-2v2l-5 4h-2l-2 4h-2v2l-8 7-12 11-2 3h-2l-2 4-6 5-2 5v6h-2l-1 6h-2l-1 4-6 1-1 6-2 1 2 2-4 4-4-5-4 2v2l-3 1-2 1-1 6-6 12v48l2 15 1 7 4 13 4 10v4l-5-1-4-4-8-18-2-7v-5l5 10 2-2-1-13-2-21 1-28 1-10 12-26 1-3h2l2-5 7-11 10-11 7-8 4-4h2v-2l8-7 3-3h2v-2l8-6 14-10 11-6 14-8 14-6 12-3z"/><path fill="#E98433" d="M596 247h3l4 6 13 20 13 30 8 19 1 10h-13l-4 1h-7l-2-5-4-25-7-32-6-21z"/><path fill="#FFE643" d="M383 171h12l16 8 4 4h-15l-10 3-4 4-3 5-6 12-4 12-1 7-2 3-3 12-1 1-2 17-2 6-2 13-2 18-1 7-1 17h-1l-1-31 2-14 7-33 1-18-4-4-4-1 1-10 4-9 5-10 7-11 5-5 5-1z"/><path fill="#EF8716" d="m635 468 4 2-1 5-5 13-3 8-4 2-5 5-4 3v4l-4 1-2 3-5 1-2-1-2 4-5 5-11 5-10 4 4 3-7 5-10 1-5 2-9 2-10 1-7-2v-8l4-2 5-4-1 8 7-4 5-4 8-4 4-6 5-3h3l2-7 4-3 4 1v3l2 2-3 1v2h-4l-1 2h-2l-1 4-4 3-5 2-3 6 9-4h2l1-3 5-4 1-4 4 4 2-3h-2v-2l4-1 3 1 1-3 10-3h5l6-11 7-9 3-3 3-6h2l2-5h2l1-4z"/><path fill="#FFC229" d="m615 222 3 1v2l4 2v2h2l3 4v2h2l4 7 13 20 8 17 8 16 6 16 6 19 5 22 3 17 2 22v56l-3 19-6 21-4 12-4 11-6 12-6 11-2 1 1-4 11-23 9-24 5-18 3-19-3-1-2-10-4-1-6 1 3-3 8-1 1-8v-16l-1-20-5-35-8-32-7-21-7-17-9-17-9-16-18-24z"/><path fill="#FED630" d="M384 32h7l-4 2-10 2-7 4-16 6-18 6-31 13-20 11-2-1 3-5 3-3v-4l-1-3-3-1 1-3 5-2 1-2 17-5 18-6 26-6 13-2z"/><path fill="#F9967F" d="m758 368 2 3 1 4 1 13v37l-2 30-3 23-6 28-6 20-8 24-5 12-16 32-12 20-14 20-4 4 1-5 7-10 2-6 3-3 7-11 6-11 12-23 5-13 4-10 4-13 3-9 4-17 2-7 2-11 5-27 1-3 3-36 1-11z"/><path fill="#FC9B1C" d="m335 287 5 1-1 8 2 19 4 23 2 8-1 4-5-16 1-2-2-1-1-1-1 3-2 5v5l-3 2-1-3h-2l-2-3v7l4 15 6 13 4 8-1 2-4-6h-2l-4-8-2-5-2-9-3-14-3-26v-19l2-6z"/><path fill="#FDEC75" d="m355 219 7 1 3 4-1 18-9 41-4 10-4 3-4-1-1-2v-24l3-17 7-25z"/><path fill="#FEE240" d="m261 447 1 2 1 22 6 20 7 16 7 13 8 14 4 6 1 5-7-3-4-5v-2h-2l-2-4-5-5-8-13-9-16-11-23-4-10v-6l9 2v-2l4-2z"/><path fill="#D06A0E" d="M630 502h2v4h-2v3l-5 5-4 5-5 5-4 1-1 3-14 9-12 7-16 6-11 4-13 4-8 1v3h10l7-2 19-6 16-6 11-6h2l1-3h2l8-5h4v-2l6-3 2 1-4 2-1 3-18 11-16 8-19 7-32 8-7 1h-14l-9-4-10-6-1-3 9 1h20l28-6 16-5 16-6 14-7 5-4 5-3 12-11 9-11z"/><path fill="#FC9B1C" d="m527 393 2 1-11 12-7 8-3 1-1 3h-2l-2 4-3 5-3 10h-2l-3 24v32h-1l-1-8v-26h-4v2l-6 5h-2l-2-9v-10l7-13 8-12 12-16 5-6 3-3h3v-2h2l1 4 7-3z"/><path fill="#ED8616" d="m637 496 1 2h2l-4 20-9 19-3 3 1-8-2-2-3 2h-3v2l-7 3-17 10-9 4-20 7-20 5-7-1v-3l24-7 20-8 7-3 19-11 5-5 4-2 5-5 7-9h2v-3h2l2-5z"/><path fill="#FDAC21" d="m617 573 3 1-2 5-15 16-7 7-11 9-10 9-2 2 1 2-1 2-4 1-3 3-35 14-9 2 1-3h2v-2l23-12 11-9 5-3 11-10 8-7 12-11 7-6 2 1 5-3 3-4h2l1-3z"/><path fill="#FC9B1C" d="m652 288 2 2 2 7h2l6 16 4 14 3 23-1 7-3 4-2 19-2-4-3-20-1-5h-2l-6-22-2-9v-7l3-8 3-4-3-10z"/><path fill="#F9957E" d="m609 707 2 1-14 9-23 12-22 10-24 8-44 12-28 7-20 4h-13l2-2 16-4 5-2 7-1 3-2h5l10-4 5-1 12-3 5-2h5l1-2 21-3 6-3 16-4 19-7 18-7 5-3 11-6 10-5z"/><path fill="#E98431" d="m305 573 14 1 2-1v2l5 2 12 6 16 5 19 3 18 2-3 2-13 2h-20l-13-2-21-6-12-6-6-5-1-4z"/><path fill="#B65509" d="m273 575 6 3 3 1v3h2l7 8 8 8 5 2 9 8 14 10 13 8 24 12 20 7 9 3 21 5 14 3 15 2v1h-16l-23-4-23-6-24-9-25-13-12-8-17-12v-2l-4-2-10-9-2-1v-2l-4-2-3-5-7-7z"/><path fill="#FEC028" d="M492 451h1l1 8 7-1 2-1-1 39 2 18 1 12-2 3h-2l-3-7v-4h-2l-3-13-1-6-1-16v-22z"/><path fill="#FB9786" d="m497 733 3 1-4 1v2l-9 3h-6l-5 4h-5l-9 3-11 2-1 3-6-1-6 2-3-2-6 2h-11v-2h-17l-3 1-5-1-4 1-17-1-9-3-4-1v-2h-6v-1l10-1 13 2 30 1h30l11-1 11-2 13-2 14-5z"/><path fill="#CE620F" d="M652 483h1v6l-4 8-7 16-5 12-1 3h-2l-2 6-10 19-8 13h-2l-1 4h-2l-1 4h-2l-1 4-19 19-4 2-3-2 17-17 11-14 10-14 8-14 8-15 2-5h2l1-6 5-12 7-15h2z"/><path fill="#FFE642" d="m512 414 6 1v7l-6 15-9 20-4 3h-5l-1-1v-14l2-8 3-1 4 1 1-1v-9l6-10z"/><path fill="#EE8616" d="M263 705h2v2l5 2 2 1v2l-10 3-3 1v2l-2 2h-3l1 3-9 5-3 2v-2l-10 2-8-1-15-9v-2l10 3h8l7 1v-3l5-2 5-6h3v-2l4 1 1-2h7l3-2z"/><path fill="#FDEB6D" d="m659 517 1 3-12 23-11 17-12 16-9 10-7 8-11 11-11 9-11 8-4 1 6-7 9-8 11-9 13-13 9-11 10-12 10-15 14-24 3-6z"/><path fill="#B65609" d="m430 192 4 2 8 7 3 2v2l4 2 19 19 11 14 8 11 10 16 8 16 6 14v11l-2 1-8-23-7-14v-3h-2l-4-8v-2h-2l-4-8-10-14-11-13-10-10-9-10-8-7-2-1v-2h-2z"/><path fill="#FDEC77" d="M253 432h6l4 6-1 9-5 10-4 1v2h-7l-3-3-2-9 1-6 3-5 5-4z"/><path fill="#FED630" d="m386 394 7 6 9 8 3 2v2l4 2 12 9 11 8v2l4 1 9 3v2l-13-2-8-4-1-2-10-5-16-12-14-11-7-7 4-1 3 2h4z"/><path fill="#D16B0E" d="m350 392 6 5 7 8 11 10 14 11 5 3 9 6 7 4 4 2v2l7 1 9 3 16 4 3-1 1 6-2 1h-8l-16-5-16-9-14-9-9-7-11-9-12-11-9-10z"/><path fill="#FCA71F" d="M60 522h4l6 12 5 12 5 14 5 9 3 9 1 9-3-1-12-23-4-8-3-9-5-11-2-6z"/><path fill="#FB9B1C" d="M221 385h1l1 28 2 28 7-2 12-5h3l-5 10 1 13-1-4-6 1-2 4-4 1-4-1v-2h-2l-2-5 1-3-1-22-1-10z"/><path fill="#E98432" d="m411 428 7 2 5 2 18 8 12 1v1h-11v3l-5 2-9-1-15-3v-2l-3-1-1-2-4-2 1-4 1-3z"/><path fill="#EF8716" d="m591 617 4 1v4h-2l-2 4-4 7-12 6v-2l-10 2-4 1v-3l3-4v-3l4-1 1-3 10-3 8-5z"/><path fill="#FEBF28" d="m579 613 2 1-8 8 1 2-1 2-4 1-3 3-35 14-9 2 1-3h2v-2l17-9 9-3 13-5 3-3 3-1 4-4z"/><path fill="#CC610E" d="m623 529 2 1-4 2-1 3-18 11-16 8-19 7-19 5h-7l2-2 5-3 16-4 15-5 10-4 11-6h2l1-3h2l8-5h4v-2z"/><path fill="#9F4704" d="M630 502h2v4h-2v3l-5 5-4 5-5 5-4 1-1 3-14 9-12 7-16 6-11 4-13 4-11 1-9 1 3-3 23-5 16-5 16-6 14-7 5-4 5-3 12-11 9-11z"/><path fill="#FFDB33" d="m376 204 1 3-4 12-1 7-2 3-3 12-1 1-2 17-2 6-2 13-2 18-1 7-1 17h-1l-1-31 2-14 7-33 6-21z"/><path fill="#EE8616" d="m587 546 3 1-3 3-17 6-16 5-10 2-7-1v-3l24-7 13-5 10 1z"/><path fill="#CA5E0E" d="m273 575 6 3 3 1v3h2l7 8 8 8 5 2 9 8 14 10-2 2 1 2-5-2-16-12-2-1v-2l-4-2-10-9-2-1v-2l-4-2-3-5-7-7z"/><path fill="#CC5E0F" d="m212 668 6 3 5 5 13 10 2 1v2l5 2v2h3v2l5 2 3 3-1 2-9-1-4-3-1-3-4-1v-2h-2l-3-3v-2l-4-2-10-9-4-5z"/><path fill="#F0845E" d="m322 579 5 1 8 3 12 3 19 6 5 1-3 2-19-2-18-3-8-5v-2h-2z"/><path fill="#FED430" d="m372 441 9 1 2-1 7 3 6 2 10 4 11 8 4 3 1 5-6-2-11-7-12-6-12-5-9-3z"/><path fill="#D16A0E" d="M616 556h1l-1 7-2 3h-2l-1 4h-2l-1 4h-2l-1 4-19 19-4 2-3-2 17-17 11-14 7-9z"/><path fill="#BA5909" d="m420 460 5 2 7 7 8 10 6 9 6 10 4 8 2 9 2 8-3-1-5-13-8-16-6-10-10-13-8-9z"/><path fill="#FA9782" d="M723 573h2l-1 5-12 23-12 19-13 18-1-3 9-14 1-4 3-3 7-11 6-11 9-17z"/><path fill="#FB9A1B" d="m416 451 5 1 15 7 5 7 2 2 2 8-3 1-4-2-6-8v-2l-5-2-11-8z"/><path fill="#FDAA20" d="m497 518 5 10 2-2 1-3h2l5 16 4 10v4l-5-1-4-4-8-18-2-7z"/><path fill="#EA842D" d="m356 589 9 1 26 3-3 2-13 2h-20l-13-2-10-3v-2l13 1 14 2 9 1-12-4z"/><path fill="#CC630E" d="m350 392 6 5 7 8 11 10 14 11 5 3 15 10 1 3-5-1-11-7-9-7-11-9-12-11-9-10z"/><path fill="#FFC229" d="m350 232 1 2-6 22-2 13-1 14-2 2v-2l-3-1v-7l2-5 2-16 2-8v-6l2-4h2v-2z"/><path fill="#FDA71F" d="m251 525 3 1 3 4v2h2l7 11 8 11 8 12v3l-4-2-8-10-7-10-9-14-3-5z"/><path fill="#CB5F0E" d="M505 360h2l-2 10-3 9-6 15-10 21-5 6h-2l1-5 9-16 12-28z"/><path fill="#FEAC21" d="m512 435 2 1v2h-2l-1 6-6 12v48l2 15-1 4-2-2-1-8-2-21 1-28 1-10z"/><path fill="#CB600E" d="m496 267 4 5 5 11 6 14v11l-2 1-8-23-7-15h2z"/><path fill="#E98433" d="m494 552 19 1 20 3v1l-10 2h-20l-9-3z"/><path fill="#CC600E" d="m385 647 8 1 21 5 14 3 15 2v1h-16l-23-4-23-6z"/><path fill="#B85A07" d="m462 565 1 2-4 5-7 6-16 7-10 3-11 3h-3v2h-10l1-2 22-6 15-5 9-4 10-9z"/><path fill="#CB5E0E" d="m459 517 2 3 3 8 2 11 1 20-3 8h-3v-3l2-6v-13l-4-17-1-6 1-1z"/><path fill="#CC5F0E" d="M652 439h1v8l-5 22-6 17-5 9-3 8-2 1-1-4 8-15 6-16 6-29z"/><path fill="#CD610E" d="m635 522 1 2-4 10-10 19-4 6-3-2 2-5 8-14 8-15z"/><path fill="#9B4503" d="m526 48 13 4 5 3 4 1 1 2 8 4 3 5-5-2-20-9-8-4-2-3z"/><path fill="#D36C0E" d="M294 550h2l3 5 5 4 3 5 5 3 8 8-6-2-4-1h-2l-5-5v-2h-3l-4-4-2-7z"/><path fill="#FDA31E" d="M617 229h2l12 16 9 14 14 28 3 7-1 3-3-9h-2l-9-20-6-11-10-15-9-12z"/><path fill="#FCA71F" d="m210 82 4 1-3 1v2l-13 10-7 4h-6l3-5z"/><path fill="#EE9472" d="m290 756 11 2 10 1 9 1 7-1h7l-4 4h-7l-3 2-8-1-18-5-4-2z"/><path fill="#FEAE21" d="M237 443h5v8l-15 3-3-1 1-5 8-4z"/><path fill="#A64D05" d="m483 35 13 3 5 2 12 3 8 3v2l2 1-9-1-26-8-6-2z"/><path fill="#EF8716" d="m646 345 2 2 3 12 2 20v54h-1l-1-52-3-24z"/><path fill="#ED9572" d="m389 754 16 2 3 4-9 2-5-1h-3v-2l-7-2 1-2z"/><path fill="#F08916" d="m509 409 4 1-2 4-3 1-1 3h-2l-2 4-5 8-2-2 1-5 3-6h2l2-5z"/><path fill="#E98430" d="m356 589 9 1 26 3-3 2-13 2h-7v-3l-12-4z"/><path fill="#FFE744" d="M597 600v3l-3 5-12 10-8 5-2-1 10-10 10-8z"/><path fill="#C5600B" d="m469 572 1 2-4 7-9 6-9 4-13 3v-2l12-4 10-5 8-7z"/><path fill="#FFDA32" d="m376 204 1 3-4 12-1 7-2 3-3 12-3 6h-1l1-8 4-15z"/><path fill="#CB5F0E" d="m494 557 9 1h23l1 3-23 2-9-3z"/><path fill="#FED530" d="m508 415 3 1-6 9-1 5v6l-3 2-4-2 2-9 6-9z"/><path fill="#FED32F" d="m295 541 5 5 6 9-1 3-7-3-7-10-1-2 5 1z"/><path fill="#FBB628" d="M738 282h3l8 26-1 7-2-2-3-12-5-15z"/><path fill="#E9842F" d="M602 571v3l-14 15-10 10h-2v2l-5 3-2-1 4-5 9-7 8-8h2l2-4z"/><path fill="#FFC229" d="m309 725 7 1 40 6 13 3v1h-7l-16-3-24-3-13-4z"/><path fill="#CA600D" d="m382 424 5 1 21 14 1 3-5-1-11-7-9-7z"/><path fill="#CA610E" d="m430 192 4 2 8 7 3 2v2l4 2 13 13-2 2-6-5-6-7-5-5-9-8-2-1v-2h-2z"/><path fill="#FDAA20" d="m522 642 3 1-3 3 2 1-16 5-7 1-1-3 18-6z"/><path fill="#FCAC92" d="M723 573h2l-1 5-10 19-3-1 2-6 9-16z"/><path fill="#FDF173" d="M90 335h1l1 17 3 6 1 1 8-1 7-6-2 6-7 3-11 2-1-6z"/><path fill="#B05406" d="M452 29h11l3 2v2h7l5 1v2h-8l-17-3z"/><path fill="#FC9E1D" d="m224 447 2 1-1 5 17-2 1 1v5l-1-4-6 1-2 4-4 1-4-1v-2h-2l-2-5z"/><path fill="#AF5207" d="m551 552 7 1v1l-13 4-11 1-9 1 3-3z"/><path fill="#B95908" d="m449 498 5 3 2 5 2 9 2 8-3-1-5-13-3-6z"/><path fill="#FEC028" d="m409 453 4 2 8 6 1 5-6-2-11-7-3-3 7 1z"/><path fill="#BE5A0A" d="m461 221 4 2 12 14 3 4-1 2-2 1-8-11-8-9z"/><path fill="#BD590B" d="m365 639 10 3 10 4v2l-10-1-13-5z"/><path fill="#C55F0C" d="m496 267 4 5 5 11v2l-4 1-7-15h2z"/><path fill="#B35408" d="M630 502h2v4h-2v3l-5 5-4 5-5 5h-3l3-5 8-9z"/><path fill="#FDA820" d="m456 562 1 4-2 1v5l-4 3-6-1 3-6 5-2v-2z"/><path fill="#CF660E" d="M616 556h1l-1 7-2 3h-2l-1 4-3 1v-3l-5 5 2-4 9-12z"/><path fill="#D06A0E" d="m410 653 10 1 8 2 15 2v1h-16l-17-3z"/><path fill="#EF8716" d="M511 363h2l-1 8-3 9-2 3h-3v-5l4-3v-9z"/><path fill="#FFDD37" d="M362 246h3l-1 13-3 7-3 4 1-9z"/><path fill="#FFDA32" d="M283 434h11v1l-18 3-10 4h-2l1-4 7-2z"/><path fill="#C9610D" d="M428 594h5l-2 3-19 5h-6v-2l21-5z"/><path fill="#D16B0E" d="m623 529 2 1-4 2-1 3-4 2-5 2-11 6-3-1 5-2 1-3h2l8-5h4v-2z"/><path fill="#FEEF69" d="M125 315h1v7l-3 11h-2l-1 7-2 5-6 7-1-2 7-11z"/><path fill="#E8832D" d="m590 540 3 1-1 4h-2l-1 2-4 2-9-1 3-3 9-4z"/><path fill="#C3600A" d="m562 559 4 1-7 3-11 3h-7l2-2 5-3 11-1z"/><path fill="#EF8716" d="M596 489h5l-1 6 2 1-6 3-3-1-1-7z"/><path fill="#FFDB34" d="m261 447 1 2v22l-2-3-3-8 1-7z"/><path fill="#FFD931" d="m411 180 4 2v1h-15l-10 3-4 4-3 5-2 1 2-5 6-7 9-3z"/><path fill="#FBC48C" d="m748 310 2 2 4 18v9l-1-3h-2l-3-21z"/><path fill="#FEB022" d="M739 493h1l-1 9-5 16-2 1 1-9h2v-12l1-3z"/><path fill="#F8947C" d="m609 707 2 1-14 9-10 5 2-4 8-5 8-4z"/><path fill="#FC9B1C" d="m251 525 3 1 3 4v2h2l3 5v5l-3-1-6-10-2-3z"/><path fill="#EF8716" d="M515 336h1v17l-3 9h-2l1-12 2-6z"/><path fill="#BD5F07" d="M43 312h1l-1 11-2 11h-2v-14l3-7z"/><path fill="#F99D85" d="M754 334h1l1 18-1 9h-1l-2-17v-8z"/><path fill="#CD630E" d="M512 368h2v8l-4 12-3-1 1-9 2-1z"/><path fill="#B35607" d="m462 565 1 2-4 5-7 6-7 3h-3v-2l7-3 10-9z"/><path fill="#F18561" d="m495 554 17 1 7 2v1h-14l-10-2z"/><path fill="#F48878" d="m755 339 2 4 3 23v5l-2-3-1-9-1 6h-1z"/><path fill="#A94E06" d="m573 545 4 2-16 6h-7v-2l16-5z"/><path fill="#FFC229" d="m232 445 2 1-2 6-7 2-1-4 2-3z"/><path fill="#F08916" d="M287 53h5l-1 2-13 2-5 3-8-1 4-2 11-3z"/><path fill="#FFDA32" d="m361 345 2 3 8 22-1 3-5-9-4-13z"/><path fill="#FFF160" d="m197 116 2 1-4 5h-2l-2 4-10 9v-3z"/><path fill="#F4967B" d="m296 722 10 2 6 2v3h2v2l-9-3-9-5z"/><path fill="#FFC229" d="M677 443h1v8l-1 5-4 1v-9l1-3h3z"/><path fill="#FECB2C" d="m358 374 5 3 3 4v2h2l7 9 1 3h-2l-6-7v-2l-3-1-7-9z"/><path fill="#AB4F07" d="m350 634 8 1 8 5v1h-7l-9-5z"/><path fill="#F7977F" d="m497 733 3 1-4 1v2l-9 3-6-1 4-3z"/><path fill="#EF8716" d="M564 509h2v4h-2v2l-9 3-3-2 6-4h5z"/><path fill="#9B4503" d="m68 554 3 1 8 16-1 2-4-4z"/><path fill="#FC9B1C" d="m275 557 4 4 3 5v3l-4-2-6-8z"/><path fill="#FED533" d="m244 458 2 1 9 1 1 2-9 2v5l-2-1z"/><path fill="#FDA61F" d="M645 272h2l8 17 2 5-1 3-3-9h-2l-6-13z"/><path fill="#FFC229" d="M611 584v3l-15 15-2-1 4-5h2l2-6 5-2z"/><path fill="#CE660E" d="m573 554 3 1-4 3-2 2-5 1-3-1-8 1 3-2z"/><path fill="#FECF2E" d="m495 437 1 3 3 1 1 4-6 5h-1l1-9z"/><path fill="#FDB926" d="m208 661 4 2 9 8v2l4 2 2 4-4-2-5-4-7-8z"/><path fill="#CB5E0E" d="M205 317h2v9l-5 5 1-10z"/><path fill="#A14905" d="m526 48 13 4 5 3-2 1-4-1v-2l-8 1-5-5z"/><path fill="#E98430" d="m632 523 1 2-8 15-1-3 1-5v-3l4-3h2z"/><path fill="#FEF469" d="m355 219 2 1-4 16-4 3 3-12z"/><path fill="#D1670F" d="m430 192 4 2 8 7 3 2v2l4 2-1 2h-2l-7-8-7-5v-2h-2z"/><path fill="#FFFEC9" d="M256 450h2l-2 6-3 3-5-1 2-4 6-2z"/><path fill="#CD620E" d="M652 439h1v8l-3 12-2 1 1-9 2-11z"/><path fill="#FEB624" d="M340 289h1v26h-1l-2-22z"/><path fill="#AB5007" d="m483 35 13 3 1 4-13-3-2-1z"/><path fill="#EF8716" d="M495 432h1l-1 9-3 12h-1v-10z"/><path fill="#ED916B" d="m290 756 11 2 7 1v3l-7-1-10-3z"/><path fill="#CB5F0E" d="m469 572 1 2-4 7-5 3v-4l5-6z"/><path fill="#C55E0C" d="M582 552h5l-1 2-10 4h-5l1-2 3-1 1-2z"/><path fill="#FEB524" d="m512 435 2 1v2h-2l-1 6-6 12h-2l2-6z"/><path fill="#FEB223" d="m544 377 2 1-4 3zm-4 4 2 1-12 12-1-2 3-4h2v-2z"/><path fill="#CD620E" d="m398 434 6 2 5 5-3 1-10-6z"/><path fill="#FA9B84" d="m711 596 2 1-2 5-3 5-3-1 2-6z"/><path fill="#A64C05" d="m613 522 2 1-4 5-9 6-3-2 8-5z"/><path fill="#BD5A0A" d="m551 552 7 1v1l-13 4h-6v-1l5-1-1-2z"/><path fill="#EF8716" d="m620 468 2 3v2l-2 1-2 4-4-3 1-4 4 1z"/><path fill="#EE8819" d="m418 183 6 2 8 6-3 2-3-2v-2l-4-1v-2l-4-1z"/><path fill="#A24A05" d="m462 32 16 2v2h-8l-8-2z"/><path fill="#B25408" d="M324 619h5l5 4v2l-7-1z"/><path fill="#C05D0A" d="m461 221 4 2 5 6-2 3-7-8z"/><path fill="#F7947A" d="m695 623 1 3-9 12-1-3 8-11z"/><path fill="#A84E06" d="m40 459 3 4v12l-2-1-1-5z"/><path fill="#D0680E" d="m350 392 6 5 7 8-2 2-9-10z"/><path fill="#D16B0E" d="m565 358 3 1-9 7-5 1 4-5z"/><path fill="#CE640E" d="M517 348h1l1 9-1 6-3 1v-10z"/><path fill="#BB590A" d="m491 259 4 4 1 2v6h-2v-2h-2l-1-5v-3z"/><path fill="#FDA51F" d="M617 229h2l11 14v2h-2l-11-15z"/><path fill="#FEB022" d="m284 55 4 1-3 3-9 4-2-1 2-3z"/><path fill="#CB5E0E" d="m399 592 8 1v1l-11 2h-6l1-2z"/><path fill="#B75509" d="M623 514v3l-5 4-3 4-2-1 3-5 4-4z"/><path fill="#CD640E" d="m420 460 5 2 7 7-1 2-4-2-7-8z"/><path fill="#C95E0D" d="m500 376 2 1-3 10-3 1 1-6z"/><path fill="#F8957D" d="m639 684 3 1-11 9h-2v-2l6-5z"/><path fill="#EA842B" d="M602 571v3l-11 12v-3l7-8z"/><path fill="#FAA087" d="m727 564 2 1-1 5-3 4-2-1 2-7z"/><path fill="#CF680E" d="m456 508 3 4 5 11-1 4-3-7v-3h-2l-2-5z"/><path fill="#FEAF22" d="M747 452h1v13l-3-1-2-4 2-2h1z"/><path fill="#C15D0B" d="m365 639 10 3v1l-8 1-5-2z"/><path fill="#BF5D09" d="m411 589 4 1-3 1v2h-10l1-2z"/><path fill="#CD630E" d="m414 598 6 1-4 2-10 1v-2z"/><path fill="#BF5C0A" d="M635 493h2l-2 8-3 3-1-4z"/><path fill="#F5B96B" d="m748 310 2 2 2 8v5h-2l-2-10z"/><path fill="#FCA11D" d="m652 288 2 2 2 7h2l2 5-1 3-1-5-4-2z"/><path fill="#FFFEC9" d="M349 284h1v7l-3 3h-2v-5l3-3z"/><path fill="#AD5107" d="m573 545 4 2-8 3-5-1 3-2z"/><path fill="#C8620C" d="m447 491 3 3 2 6-2-1-2 2-3-5 1-2 1-1z"/><path fill="#FEAE21" d="M741 477h3v6l-3 3-1-7z"/><path fill="#F89379" d="M624 696h2v2l-10 7v-3l1-2z"/></svg>