<svg xmlns="http://www.w3.org/2000/svg" width="282" height="282" viewBox="0 0 1128 1128"><path fill="#FCFCFC" d="M0 0h1128v1128H0z"/><path fill="#FCDAC5" d="M504 144h120v24h23v72l-23 1-1 23-1 2-21-2-1 32-1 16h43l5 1 1 20 7 2 15 2 1 1 1 19 7 2 16 2 1 52v44h-46l-2-1v23h16l7 1 1 78v42h23l1 66v30h24v23l-1 1h-23v24h-96v-23h-21l-3-1v24l-3 1h-21v22l-1 1h-23l-1-1v-23h-46l-1-2v-94l23-1 1-95 1-1h23l-1-21-16-1-7-2v-50l-1-29-1-11-5-3-11-4-5-4-2-5-2-7-9-4-11-3v-22l22-2 1-95v-23l1-1 46-1v-46h-14l-9-1v-24h-24v-24h24z"/><path fill="#010725" d="M505 551h164l2 1 1 6v42h23l1 66v30h24v23l-1 1h-23v24h-96v-23h-21l-3-1v24l-3 1h-21v22l-1 1h-23l-1-1v-23h-46l-1-2v-94l23-1 1-95z"/><path fill="#99CD73" d="M480 359h15l28 1 5 1v21l20 1 24 2 3 1 1 3 1 16 21 4 1 1 1 15 2 4 6 2 13 2 2 1 1 20 17 1 7 1v23h16l7 1v72l-143-1-1-21-16-1-7-2v-50l-1-29-1-11-5-3-11-4-5-4-2-5-2-7-9-4-11-3v-22l22-2z"/><path fill="#FDDBC6" d="m457 407 7 1 12 4 3 3 2 7 2 5 10 5 8 3 2 2 1 12-3 4h-2l-1 3-6 3-7 12-5 6-12 4-11 2-3 4-2 8-2 4-6 3-21 3-13 1-6 5-1 5 2 6-5 3-17 3-20 1-13 2-5 3h-2l1 5v9l-4 2-9 1h-39l-4-2v-9l-1-4 1-7-4-2v-8l-1-3 2-10 1-4 4-3h2v-2l4-1v-5l-6-1 1-5 23-6 13-1 17-1 11-2 12-5 2-6 6-3 10-3 21-6 16-5h3l-1-2-3-1v-2l8-5 1-2h2l1-3 15-7h3l1-8h2z"/><path fill="#0B0D12" d="M504 144h120v24h23v72h-71v-24h-72v-24h-24v-24h24z"/><path fill="#FBDAC4" d="M696 720h18v1h-17l1 16 3-5 3-3 7-3 7 1 2 5 2 32 2 11 4 9 2 3 6 3 4 8 2 15 2 21 1 16v38l-4 2h-45l-11-1-8-7-4-11-4-31-4-14-3-6-4-1-6-1-2-2-1-4-4-50v-15h-10l-2-1-15-1 3-2h27l48 1z"/><path fill="#FCDAC5" d="M479 659h1l1 85h46l1 23h24l-1 4v18l-2 16-3 4-11 4-4 5-2 9-2 27v12l-3 24-29 2-20 1-19-3-2-1-4-13 2-25 2-7 1-9 1-42 1-19 2-7 12-6 4-9 3-5z"/><path fill="#9ACE74" d="M599 312h43l5 1 1 20 7 2 15 2 1 1 1 19 7 2 16 2v47h-15l-6-2-1-2-1-15-6-2-40-3-2-2v-18l-1-1-46-3-1-1v-18l2-5 10-1h11z"/><path fill="#15A9CE" d="M386 936h93l1 1v22l23 2 1 3-1 19H384v-46z"/><path fill="#15AACE" d="M697 936h70l1 1v22l23 2 1 1v10l-1 11H673l-1-1v-14l1-8h23v-23z"/><path fill="#64A02A" d="M552 456h96v23h16l7 1v23l-1 1h-24l-22-1-1-23h-50l-21-1z"/><path fill="#FDE8D8" d="M696 720h18v1h-17l1 16 3-5 3-3 7-3 7 1 2 5 2 32 2 11 4 9 2 3 6 3 4 8 2 15 2 21 1 16v38l-4 2h-45l-11-1-8-7-4-11-4-31-4-14-3-6-4-1-6-1-2-2-1-4-4-50v-15h-10l-2-2h13l2 1-1 11 1 12 6 16 7 1 4 5 1 5-2-1 3 4 1 4v8l2 1 1 11 2 14v5l2 4 1 3 1 7 7 8 5 5 7 13 6 5 10 1 21-1 6-1 2-3 1-16v-10l-2-13-3-12-6-9-4-4-5-10-3-34v-11l-3-9-3-5-4-2-11 1-3-3z"/><path fill="#65A02B" d="M505 504h64l30 1v22l-1 1-46 1v10l-1 12h-23l-1-21-16-1-7-2z"/><path fill="#FEE8DA" d="m457 407 7 1-1 6 2 1-6 7-1 4h-2l-2 5-9 3-5 2-5 3-2 9-5 4h-3v2l-16 5-19 5-4 3-2 6-7 3-12 3-17 3-21 2-2 1-11 1-4 2 1 4h2l2 5-8 4-7 1-4 3-6 2-1 8 1 10 3 3 5 3 4 4 6 1-1 5-9 3-1 2 12 1 13 1 6-2-1-9 5-6 2-1 26-3 3 2-13 2-5 3h-2l1 5v9l-4 2-9 1h-39l-4-2v-9l-1-4 1-7-4-2v-8l-1-3 2-10 1-4 4-3h2v-2l4-1v-5l-6-1 1-5 23-6 13-1 17-1 11-2 12-5 2-6 6-3 10-3 21-6 16-5h3l-1-2-3-1v-2l8-5 1-2h2l1-3 15-7h3l1-8h2z"/><path fill="#FFE9DB" d="M551 767v22l-2 16-3 4-11 4-4 5-2 9-2 27v12l-3 24-29 2-20 1-19-3-2-1-4-13 2-25 2-7 1-9h1l1 51 3 1 9 1h30l3-10 5-13 4-6 7-8h2v-2h2l2-5 2-10 1-23 1-28v-8l-1-7z"/><path fill="#FEE8DA" d="m490 432 10 2 3 3 1 12-3 4h-2l-1 3-6 3-7 12-5 6-12 4-11 2-3 4-2 8-2 4-6 3-21 3-13 1-6 5-1 5 2 6-5 3-17 3-13 1-7-1v-1l18-3v-6l-1-5 2-5 5-2 15-2 21-2 3-3 3 1 5-15 3-3 12-2 4-1h4v-2l3-1 9-8v3l-1 2 3-3 2-4 5-5v-2l5-1 2-4 4-4 1-8-2-5v-3zM633 745h13l2 1-1 11 1 12 6 16 7 1 4 5 1 5-2-1 3 4 1 4v8l2 1 1 11 2 14v5l2 4 1 3 1 7 7 8 5 5 7 13 6 5 10 1 20-1 1 2-5 1h-32l-11-1-8-7-4-11-4-31-4-14-3-6-4-1-6-1-2-2-1-4-4-50v-15h-10z"/><path fill="#FEF4EC" d="m505 216 22 1 1 46-1 1h-46v-1h23v-42z"/><path fill="#FFF5ED" d="m456 408 1 4-3 5h-2v6l-1 2-18 8-1 2h-2l-1 3-6 4h-2v2l4 1v2l-13 4-30 9-12 4-3 7-16 6-21 2h-10l-14 3-15 4-1 4 6 1v5l-4 1v2l-6 4v6l-2 9 1 1v8l3 2v10l1 1-1 9h-1l-2-13 2-6-4-2v-8l-2-4 1-1 2-13 4-5v-5l-2-6 4-3 12-4 20-4h8l17-3 13-10 15-6 13-3 5-2 10-2 5-3 3-7 9-2 4-5 5-2 4-3 6-2v-2l5-1 2-5 5-4z"/><path fill="#010828" d="M481 264h47v22l-1 1-38 1h-7l-2-2v-21z"/><path fill="#FFE9DC" d="M479 659h1v86l2 1h-2l-1 13-1 21-1 15-4 11-5 2-5-1-4-3-1 1-1 11h-1v-23l1-19 2-7 12-6 4-9 3-5z"/><path fill="#FEE8DA" d="M551 767v22l-2 16-3 4-11 4-4 5-3 15h-1v-26l1-24v-8l-1-7z"/><path fill="#66A12D" d="M671 558h1v41l-4 1-44-1 1-23h32l-2 2h-4l1 3-2 2-10-1 1 6h6l1-4v2h2v2l6-1 2-4 7 7 2 5-1 2 4 1z"/><path fill="#FEF4EC" d="M648 456h42l2 2-7 3-4 4h-2v2l-5 5-3 7v1l-23-1zM695 406h1l1 6 8 3 3 5v17l5-2 2 10 2 3v8h-21z"/><path fill="#FFF4EC" d="M601 264h13l8 2 1-2v15l-1 8-6-2-6 1-5 8-2 4-2 3-1 5h-1l1-38z"/><path fill="#FFE9DB" d="m419 502 4 2-2 1-11 1-6 5-1 5 2 6-5 3-17 3-13 1-7-1v-1l18-3v-6l-1-5 2-5 5-2 15-2zM600 241h23v23l-1 2-21-2z"/><path fill="#FFF5ED" d="M455 835h1l1 51 3 1 9 1v2l36-1 7-3 4-5 7-14 3-4 1 3-3 24-29 2-20 1-19-3-2-1-4-13 2-25 2-7z"/><path fill="#FFF4EC" d="M503 449h1v12l-5 2v2h-2l-2 5-6 7-10 4-9 2-9 3-1 8-7 8-10 2h-10l4-2 10-2 4-3 1-7 3-6 2-2 18-4 6-3 9-14 5-5 3-1z"/><path fill="#FFF5ED" d="M720 733h1l2 21 4 11 9 5 4 6 2 13 2 29v13h-1l-3-29-4-10-3-3-5-3-4-8-2-6-2-22zM744 835h1l1 9 2 31v8l-2 7-8 2-13 3-15 4-9-2-7-5-4-1-13-1-3-2-3-20v-12h1l2 15 5 12 6 5 11 1h45l3-1zM625 745h8l2 1h8l2 1 2 26v14h-1l-2-16-3-2h-10l-4-4-1-3zM549 801h1v12l-3 9-4 3-6 3h-2l-2 6-3 5-2 15h-1v-12l2-21 3-6 5-4 10-4zM363 528h7l-3 2-6 2v9l-5 8-10 1-4-2h2l-1-9-1-3 4-4 4-2zM649 812l2 4 3 2h6l3 2 4 9 4 16v11h-1l-2-12-7-9-6 1-3-1-3-15zM421 504h12v1l-9 2-6 4-6 12-6 3-5 1h-12l4-2 10-2 1-3-2-4 1-5 7-6zM476 746l3 1-7 14-6 4-7 3-1 6h-1v-12l2-11 2-3 13-1z"/><path fill="#FFE9DB" d="m648 456 29 1v1l-6 1-2 7-5 3-9-1-4-2v-2h-2l-1 4zM480 345h7l10 7 2 2v4l3 1h-22z"/><path fill="#FFF5ED" d="M455 835h1l1 51 3 1 9 1v1h-15l-4-13 2-25 2-7z"/><path fill="#FEF4EB" d="M714 720h5l1 12-2-4-7-1-9 3-2 6-3 3v-18z"/><path fill="#FFE9DB" d="m516 242 5 1v7l1 3-3 3-6-1-5-1-3 1-1-7 2-4 3 1 1 2 3 1 1-4h2z"/><path fill="#FEE8DA" d="m490 432 10 2-4 1-1 10-1 2h-2v3h-2v-8l-2-5v-3z"/><path fill="#FDDBC6" d="M609 249h8l4 2 1 5-3 3-7-1-7-2v-2l5-1 4 1 2-2v-2h-7z"/><path fill="#FFE9DB" d="M455 835h1l1 51 3 1 9 1v1h-14zM312 537l4 2 6 2-1 5-6 1-4-5zM633 745h13l2 1-1 11 1 8-2 4-1-7v-15h-10z"/><path fill="#050C26" d="M640 582h7l1 2-1 3 2 1-2 1h-6l-1-5z"/><path fill="#FFE9DB" d="m729 887 4 1-4 2h-22v-1l10-1z"/><path fill="#FEE9DB" d="M572 217h3l1 22 6 1v1h-7l-1-1-1-17-2-2z"/><path fill="#FDDBC6" d="m493 433 7 1-4 1-1 10-2 2-1-9v-3z"/></svg>